<svg width="24" height="16" viewBox="0 0 24 16" fill="none" xmlns="http://www.w3.org/2000/svg">
<path d="M24 6.25757C24 5.80302 23.9124 5.27273 23.9124 4.66667C23.8248 4.06061 23.7372 3.45454 23.6496 2.92424C23.4745 2.31818 23.2117 1.86364 22.6861 1.48485C22.2482 1.10606 21.635 0.878783 21.0219 0.803026C19.0073 0.575753 16.0292 0.5 12 0.5C7.97082 0.5 4.90511 0.575753 2.9781 0.803026C2.36496 0.878783 1.75183 1.10606 1.31387 1.48485C0.875913 1.86364 0.525542 2.31818 0.35036 2.92424C0.175177 3.45454 0.0875966 3.98485 0.0875966 4.66667C5.34484e-06 5.27273 0 5.80302 0 6.25757C0 6.71211 0 7.24242 0 7.99999C0 8.75757 0 9.36363 0 9.74242C0 10.197 0.0875966 10.7273 0.0875966 11.3333C0.175188 11.9394 0.262768 12.5454 0.35036 13.0757C0.525542 13.6818 0.788321 14.1364 1.31387 14.5151C1.75183 14.8939 2.36496 15.1212 2.9781 15.197C4.9927 15.4242 7.97082 15.5 12 15.5C16.0292 15.5 19.0949 15.4242 21.0219 15.197C21.635 15.1212 22.2482 14.8939 22.6861 14.5151C23.1241 14.1364 23.4745 13.6818 23.6496 13.0757C23.8248 12.5454 23.9124 12.0152 23.9124 11.3333C24 10.7273 24 10.197 24 9.74242C24 9.28788 24 8.75757 24 7.99999C24 7.24242 24 6.63636 24 6.25757ZM16.6423 8.60606L9.72264 12.3182C9.63504 12.3939 9.45986 12.4697 9.28468 12.4697C9.1095 12.4697 9.0219 12.4697 8.84672 12.3939C8.58395 12.2424 8.40877 12.0152 8.40877 11.7121V4.21212C8.40877 3.90909 8.58395 3.68182 8.84672 3.5303C9.1095 3.37879 9.45986 3.37879 9.72264 3.5303L16.6423 7.24242C16.9051 7.39393 17.0803 7.62121 17.0803 7.84848C17.0803 8.07575 16.9051 8.45454 16.6423 8.60606Z" fill="#009997"/>
</svg>
